<?xml version="1.0" standalone="no"?>
<!DOCTYPE svg PUBLIC "-//W3C//DTD SVG 20010904//EN"
 "http://www.w3.org/TR/2001/REC-SVG-20010904/DTD/svg10.dtd">
<svg version="1.0" xmlns="http://www.w3.org/2000/svg"
 width="478.000000pt" height="522.000000pt" viewBox="0 0 478.000000 522.000000"
 preserveAspectRatio="xMidYMid meet">

<g transform="translate(0.000000,522.000000) scale(0.100000,-0.100000)"
fill="#000000" stroke="none">
<path d="M1987 4593 c-16 -15 -5 -67 22 -106 16 -24 43 -66 60 -95 l30 -52
-984 0 c-817 0 -986 -2 -997 -14 -22 -21 -52 -120 -45 -147 8 -30 484 -504
521 -519 15 -5 48 -10 74 -10 49 0 79 6 332 65 85 19 218 49 295 66 77 17 203
46 280 64 124 30 315 72 430 95 22 5 48 12 58 15 11 5 17 2 17 -7 0 -12 -306
-140 -415 -174 -35 -10 -377 -141 -660 -252 l-100 -39 -3 -69 -3 -69 168 -83
c92 -45 174 -82 181 -82 6 0 12 -4 12 -10 0 -5 4 -10 10 -10 5 0 54 -20 109
-44 108 -49 146 -54 265 -37 38 6 72 8 75 6 2 -3 -11 -22 -31 -43 -19 -20 -53
-62 -75 -92 -22 -30 -50 -64 -63 -75 -50 -44 -45 -105 8 -105 33 0 49 9 146
83 42 31 80 57 86 57 5 0 10 5 10 10 0 6 5 10 12 10 6 0 32 17 57 38 84 69
132 104 136 100 3 -2 -20 -67 -51 -144 -30 -76 -64 -167 -75 -201 -18 -54 -26
-66 -68 -92 -53 -34 -101 -81 -82 -81 6 0 35 18 63 41 82 64 173 105 437 194
361 121 451 167 487 252 9 20 14 67 14 120 -1 135 -31 187 -140 237 -99 45
-277 52 -410 16 -81 -22 -149 -107 -165 -208 -4 -23 -13 -48 -20 -56 -17 -17
-357 -31 -386 -16 -17 10 -19 22 -19 109 0 255 133 415 418 505 163 51 391 66
575 36 28 -4 53 -7 55 -5 3 2 -21 61 -39 98 -6 12 -4 25 7 43 22 33 8 47 -51
48 -26 1 -49 7 -54 14 -14 23 -23 -35 -10 -61 7 -12 28 -40 47 -61 49 -55 21
-62 -30 -8 -38 41 -42 57 -41 147 0 11 1 93 2 182 l1 162 28 26 c57 55 259
215 271 215 30 0 18 -37 -43 -138 -36 -59 -66 -111 -66 -115 0 -4 446 -7 990
-7 l990 0 19 -30 c10 -17 24 -49 32 -72 l13 -41 -253 -248 c-236 -232 -255
-248 -297 -255 -44 -6 -80 0 -439 81 -82 18 -206 45 -275 59 -86 18 -128 31
-135 42 -5 10 -18 26 -27 36 -10 10 -18 21 -18 26 0 18 -25 5 -28 -15 -3 -18
2 -23 18 -23 13 0 20 -5 17 -12 -4 -14 -41 -16 -68 -4 -13 6 -16 2 -14 -16 4
-36 4 -36 25 -56 20 -19 20 -19 -30 -19 -48 -1 -67 8 -87 40 -11 18 -89 77
-101 77 -11 0 -23 -64 -12 -68 10 -4 0 -51 -12 -58 -6 -4 -14 -1 -18 6 -7 11
-11 10 -24 -3 -10 -10 -12 -18 -6 -22 5 -3 10 -13 10 -21 0 -8 -4 -12 -10 -9
-5 3 -10 -2 -10 -12 -1 -16 -2 -16 -10 -2 -5 9 -22 20 -37 24 -33 8 -73 42
-74 64 0 11 -2 12 -6 4 -8 -21 -23 -15 -23 8 0 15 -5 19 -16 15 -12 -4 -14 -1
-9 14 5 16 2 20 -14 20 -12 0 -21 -4 -21 -9 0 -5 -10 -7 -21 -4 -20 6 -21 3
-15 -33 4 -21 15 -45 24 -52 22 -17 29 -67 8 -59 -10 4 -16 1 -16 -7 0 -8 8
-17 17 -20 14 -6 15 -9 4 -15 -19 -12 52 -81 77 -74 10 2 24 -3 31 -11 8 -9
19 -16 26 -16 7 0 15 -7 19 -15 3 -8 16 -15 29 -15 16 0 28 -9 36 -26 12 -27
6 -48 -7 -27 -5 7 -13 9 -21 4 -10 -7 -10 -13 -2 -29 15 -29 14 -32 -11 -32
-12 0 -29 -7 -39 -16 -16 -15 -20 -14 -41 6 -14 13 -32 20 -45 17 -16 -3 -23
1 -23 12 -1 14 -2 14 -14 -1 -17 -23 -26 -23 -26 2 0 11 -3 20 -7 19 -18 -3
-52 14 -57 27 -3 8 -12 14 -20 14 -7 0 -16 7 -20 15 -3 9 0 15 10 15 10 0 14
6 11 15 -4 8 -2 17 4 20 26 17 52 118 40 161 -9 35 -27 39 -221 49 -209 10
-410 -25 -551 -95 -75 -38 -176 -123 -196 -165 -15 -31 -15 -35 0 -50 9 -8 20
-17 24 -18 4 -1 7 -8 5 -15 -2 -7 4 -15 13 -18 19 -8 20 -21 1 -21 -8 0 -23
15 -33 34 -10 19 -24 32 -33 31 -26 -5 -48 -95 -49 -200 -1 -97 -1 -98 25
-104 18 -5 34 0 53 14 24 17 29 18 46 6 29 -22 38 -17 31 19 -4 20 -3 27 3 18
5 -8 14 -10 21 -6 10 6 12 1 8 -19 l-5 -26 88 0 c98 0 100 1 114 75 13 76 71
156 138 191 15 8 73 22 128 31 183 30 358 -11 435 -101 67 -78 84 -229 36
-322 -45 -88 -104 -124 -365 -220 -86 -32 -152 -61 -146 -65 8 -5 8 -9 -1 -14
-7 -4 -16 -2 -20 6 -7 10 -19 9 -65 -6 -57 -20 -77 -39 -89 -87 -3 -16 -11
-28 -16 -28 -5 0 -7 -14 -3 -31 5 -25 3 -31 -8 -27 -21 7 -22 41 -1 64 13 13
16 26 11 39 -6 16 -8 17 -8 3 -1 -9 -6 -20 -12 -24 -8 -5 -10 1 -7 20 3 14 1
26 -4 26 -6 0 -45 -18 -88 -41 l-79 -41 28 -27 c16 -16 32 -39 36 -52 4 -13
13 -27 19 -31 8 -5 7 -11 -2 -20 -11 -11 -17 -9 -32 10 -10 12 -25 22 -32 22
-8 0 -21 11 -28 24 -7 14 -19 27 -27 30 -21 8 -28 -22 -9 -43 9 -10 16 -25 16
-34 0 -20 4 -21 30 -7 14 7 19 5 23 -10 4 -16 0 -20 -21 -20 -15 1 -52 -12
-84 -27 -47 -24 -57 -33 -63 -62 -3 -18 -4 -35 -1 -38 3 -3 27 -7 53 -10 26
-2 57 -8 68 -13 19 -8 101 -36 135 -47 12 -4 12 -6 -4 -15 -13 -7 -35 -7 -76
2 -32 7 -83 13 -114 14 -31 0 -56 4 -56 9 0 4 -4 7 -10 7 -5 0 -10 -6 -10 -13
0 -20 -40 -19 -41 1 -2 40 -15 -48 -13 -95 1 -29 2 -71 3 -94 0 -24 5 -38 11
-34 6 3 10 1 10 -4 0 -6 -4 -11 -10 -11 -5 0 -10 -7 -10 -15 0 -18 32 -34 37
-19 2 6 17 8 34 6 24 -4 31 0 35 16 6 19 42 42 69 42 27 0 66 -24 61 -37 -3
-7 1 -13 8 -13 8 0 17 -7 20 -16 4 -9 13 -14 21 -10 8 3 15 1 15 -4 0 -6 5
-10 11 -10 5 0 7 4 4 10 -9 15 4 12 21 -5 9 -8 26 -15 39 -15 22 0 23 2 14 30
-6 17 -15 30 -20 30 -5 0 -14 11 -19 25 -9 25 -30 35 -30 14 0 -13 -41 -1 -55
16 -5 7 -29 25 -52 39 -46 28 -56 41 -23 31 11 -3 20 -2 20 3 0 13 91 14 110
2 12 -8 12 -10 -4 -10 -16 0 -17 -2 -5 -16 12 -14 14 -14 25 0 16 22 27 20 19
-3 -3 -11 -1 -22 5 -26 6 -4 10 4 10 19 0 52 25 133 52 168 30 38 29 68 -2 68
-11 0 -22 5 -25 11 -8 12 3 64 12 55 11 -10 32 28 22 40 -14 17 0 44 19 37 14
-5 15 -3 5 8 -18 18 -16 29 5 29 10 0 13 3 6 8 -19 12 -12 45 18 86 32 44 35
42 13 -11 -15 -35 -12 -60 4 -35 5 9 13 7 27 -10 16 -19 16 -20 1 -9 -23 18
-33 8 -16 -16 18 -24 69 -27 86 -5 11 15 13 15 10 -8 -1 -14 -6 -28 -12 -32
-6 -5 -5 -8 3 -8 18 0 15 -38 -5 -49 -36 -20 -4 -21 46 -1 83 32 242 83 300
95 31 7 97 32 148 57 13 6 25 19 29 30 18 59 24 -8 24 -281 0 -321 -3 -344
-55 -423 -50 -75 -167 -117 -330 -118 -78 0 -80 -1 -81 -25 -1 -14 2 -25 7
-25 5 0 9 -4 9 -10 0 -6 -9 -6 -22 -1 -13 5 -37 6 -54 4 -18 -3 -34 0 -38 5
-7 12 49 33 69 26 8 -4 15 -2 15 4 0 19 -28 32 -77 34 -28 2 -49 6 -47 9 2 4
-10 12 -27 19 -17 7 -43 26 -59 42 -30 30 -49 23 -30 -12 8 -15 8 -20 -1 -20
-6 0 -13 9 -16 20 -3 11 -11 20 -18 20 -7 0 -18 7 -25 15 -7 8 -29 15 -49 15
-45 0 -161 -24 -189 -39 -11 -6 -37 -11 -56 -11 -37 0 -42 -5 -27 -29 8 -12
14 -13 36 -3 31 15 75 16 75 2 0 -5 -20 -15 -45 -21 -50 -13 -53 -18 -28 -57
27 -42 29 -44 74 -95 60 -68 147 -113 286 -148 107 -27 134 -30 293 -31 253
-1 431 35 558 116 89 56 163 151 203 258 18 49 19 79 18 366 0 171 -3 312 -6
312 -3 0 -12 -8 -20 -17 -8 -11 -7 -4 4 17 9 19 20 61 23 93 6 56 5 57 -20 57
-32 0 -43 -9 -30 -24 5 -7 5 -28 -1 -55 -5 -24 -7 -52 -4 -62 4 -10 2 -26 -3
-35 -15 -26 -25 73 -12 115 5 19 9 35 7 36 -1 1 -12 8 -24 14 -26 13 -29 37
-8 65 13 17 18 18 40 8 42 -19 55 -15 55 18 0 17 5 30 10 30 6 0 10 -34 10
-81 0 -51 4 -78 10 -74 5 3 10 40 10 81 l0 75 46 -27 46 -27 18 23 18 24 32
-27 c32 -27 65 -36 58 -16 -2 6 -17 18 -33 27 -17 9 -31 20 -33 25 -2 4 -12 7
-23 7 -10 0 -19 4 -19 9 0 4 -19 14 -43 20 -35 10 -50 10 -87 -3 -34 -12 -46
-12 -53 -3 -12 18 1 90 19 104 14 10 15 36 10 195 -3 101 -5 189 -6 196 0 6
-5 12 -11 12 -6 0 -9 -7 -5 -15 3 -10 -1 -15 -13 -15 -14 0 -18 5 -14 20 9 33
-27 21 -40 -13 -6 -17 -9 -17 -28 -3 -12 8 -28 12 -36 9 -16 -6 -35 15 -27 29
3 4 14 8 25 8 10 0 19 5 19 10 0 6 7 10 15 10 8 0 16 5 16 10 1 6 3 15 4 20 1
6 3 15 4 20 0 6 9 10 19 10 29 0 34 11 16 37 -18 28 -4 55 24 46 12 -3 14 -2
4 4 -20 15 -3 43 30 50 17 3 34 16 43 32 7 15 25 33 40 41 15 8 31 22 36 32 5
10 21 18 35 18 l25 0 -21 -30 -21 -30 35 0 c34 0 42 9 37 43 0 4 6 7 14 7 8 0
15 -7 15 -16 0 -8 -4 -13 -9 -9 -5 3 -8 -6 -7 -21 2 -14 9 -30 17 -35 9 -6 10
-9 2 -9 -7 0 -10 -7 -7 -15 4 -8 1 -15 -6 -15 -6 0 -9 -4 -6 -9 3 -5 -1 -14
-9 -21 -8 -7 -15 -18 -15 -24 0 -7 -16 -20 -35 -29 -35 -17 -47 -37 -22 -37
19 0 50 -36 43 -49 -4 -6 -25 -15 -46 -21 -22 -6 -40 -15 -40 -19 0 -5 -18 -8
-41 -6 l-41 3 6 -96 c3 -53 5 -143 5 -199 1 -76 4 -103 14 -103 9 0 11 19 9
76 l-4 77 22 -16 c32 -23 109 -11 195 28 39 18 113 52 165 75 52 23 149 70
215 104 l120 61 0 65 c0 78 20 64 -257 173 l-187 74 -34 -28 -34 -28 1 37 c1
33 -2 37 -27 40 -16 2 -39 13 -53 25 -21 18 -22 23 -10 41 7 12 17 36 20 54 6
26 11 30 24 23 9 -5 86 -23 171 -41 85 -17 238 -52 340 -76 102 -24 211 -47
242 -51 111 -12 104 -16 384 259 175 172 255 257 255 272 0 26 -34 122 -51
142 -10 12 -161 14 -995 16 l-985 3 60 95 c67 105 76 146 37 156 -36 9 -57 -1
-107 -49 -57 -54 -145 -127 -153 -127 -4 0 -22 -14 -41 -32 l-35 -31 0 -238 0
-238 30 -34 29 -34 -113 1 -114 1 29 33 29 33 0 239 0 238 -31 24 c-17 13 -42
33 -55 46 -14 12 -28 22 -32 22 -5 0 -26 17 -48 38 -103 97 -162 130 -187 105z
m171 -117 c70 -57 135 -113 145 -124 17 -18 18 -39 15 -245 l-3 -226 -33 -34
c-31 -31 -40 -35 -100 -39 -71 -5 -117 6 -142 33 -11 12 -21 14 -37 8 -30 -11
-29 -23 2 -47 24 -19 36 -40 15 -27 -6 4 -21 8 -35 11 -20 3 -23 1 -18 -13 5
-16 4 -16 -8 -3 -8 9 -23 23 -34 30 -19 15 -19 14 -2 -12 20 -31 22 -48 6 -48
-6 0 -33 -11 -61 -25 -51 -26 -73 -31 -64 -17 3 5 -8 19 -25 31 -26 20 -33 21
-58 10 -26 -12 -27 -14 -15 -38 28 -53 18 -85 -38 -136 -29 -26 -54 -42 -56
-37 -2 6 -10 8 -18 5 -8 -3 -14 0 -14 6 0 6 -6 11 -13 11 -8 0 -26 24 -41 54
-20 39 -32 53 -44 49 -9 -2 -134 -48 -277 -102 l-260 -97 0 -42 0 -43 275
-129 c151 -71 283 -130 292 -130 9 0 20 -4 23 -10 4 -6 -7 -10 -24 -10 -18 0
-117 41 -238 99 -115 54 -241 113 -280 131 l-73 33 0 52 c0 30 5 57 13 63 7 6
78 35 157 65 80 30 251 95 380 144 129 50 324 123 432 164 l198 74 0 38 c0 32
-3 37 -17 33 -25 -8 -507 -121 -688 -161 -616 -138 -716 -157 -763 -150 -45 7
-56 17 -294 253 -156 155 -248 253 -248 265 0 11 11 44 25 74 l26 53 995 0
c865 0 995 2 991 14 -3 8 -33 58 -66 111 -62 97 -74 135 -45 135 8 0 73 -47
142 -104z m1062 -641 c7 -9 8 -15 2 -15 -5 0 -12 7 -16 15 -3 8 -4 15 -2 15 2
0 9 -7 16 -15z m60 5 c0 -5 -4 -10 -10 -10 -5 0 -10 5 -10 10 0 6 5 10 10 10
6 0 10 -4 10 -10z m-1200 -40 c0 -5 -5 -10 -11 -10 -5 0 -7 5 -4 10 3 6 8 10
11 10 2 0 4 -4 4 -10z m945 -10 c3 -5 1 -10 -4 -10 -6 0 -11 5 -11 10 0 6 2
10 4 10 3 0 8 -4 11 -10z m-458 -56 c-3 -3 -12 -4 -19 -1 -8 3 -5 6 6 6 11 1
17 -2 13 -5z m-542 -72 c-9 -9 -35 8 -35 24 0 16 2 16 20 -1 11 -10 18 -20 15
-23z m792 21 c20 -13 22 -18 11 -29 -21 -20 -63 -22 -62 -2 1 10 -4 14 -13 11
-10 -4 -12 -14 -9 -29 4 -14 2 -24 -4 -24 -12 0 -13 45 -1 68 12 23 47 25 78
5z m226 -5 c12 -6 22 -4 33 7 14 14 19 14 37 2 31 -20 41 -41 33 -70 -5 -23
-9 -25 -31 -17 -24 9 -25 8 -14 -11 6 -12 7 -19 1 -15 -5 3 -17 -3 -27 -14
-10 -11 -23 -20 -29 -20 -13 0 -46 36 -46 50 0 12 -3 12 -24 4 -9 -3 -14 -10
-11 -14 3 -4 -3 -10 -13 -12 -15 -4 -18 -1 -14 18 2 13 8 24 13 24 4 0 20 5
35 10 31 12 21 31 -18 35 -13 1 -26 3 -31 4 -4 0 -2 10 5 20 9 15 19 18 47 14
20 -3 44 -10 54 -15z m177 -3 c-7 -8 -17 -12 -22 -9 -6 4 -5 10 3 15 22 14 33
10 19 -6z m-1050 -5 c0 -5 -5 -10 -11 -10 -5 0 -7 5 -4 10 3 6 8 10 11 10 2 0
4 -4 4 -10z m108 -26 c7 4 12 3 12 -3 0 -17 -20 -23 -35 -11 -8 7 -15 20 -15
28 0 13 2 13 13 -3 8 -10 19 -15 25 -11z m59 -18 c-6 -8 -15 -12 -19 -9 -4 2
-2 10 5 17 6 8 15 12 19 9 4 -2 2 -10 -5 -17z m1323 -78 c102 -39 191 -75 198
-81 8 -7 12 -28 10 -61 -3 -59 30 -39 -334 -209 -242 -114 -296 -129 -339 -95
-14 11 -25 29 -25 41 0 20 1 19 28 -6 19 -18 39 -27 60 -27 36 0 132 44 132
61 0 5 4 8 9 5 5 -4 22 1 38 9 15 8 54 25 85 39 57 24 58 25 52 58 -4 18 -14
47 -24 63 -15 26 -22 30 -56 27 -35 -2 -37 -1 -21 12 16 12 17 19 7 54 -9 29
-9 44 -1 61 12 21 37 29 43 12 4 -11 68 14 68 26 0 13 -140 65 -156 59 -8 -3
-14 -11 -14 -18 0 -10 -3 -9 -9 1 -12 18 27 53 49 45 8 -4 98 -38 200 -76z
m-826 64 c3 -5 -8 -6 -25 -4 -16 2 -29 6 -29 8 0 8 49 4 54 -4z m-672 -104
c-7 -7 -12 -8 -12 -2 0 14 12 26 19 19 2 -3 -1 -11 -7 -17z m1199 -1 c-10 -9
-11 -8 -5 6 3 10 9 15 12 12 3 -3 0 -11 -7 -18z m2 -38 c-3 -11 -12 -23 -19
-26 -8 -3 -11 -9 -8 -14 3 -5 0 -17 -5 -26 -9 -15 -10 -14 -11 11 0 16 10 38
23 52 27 29 26 29 20 3z m85 -43 c-3 -39 -5 -43 -23 -36 -37 13 -27 80 11 80
10 0 13 -12 12 -44z m-513 14 c8 -13 -5 -13 -25 0 -13 8 -13 10 2 10 9 0 20
-4 23 -10z m-458 -66 c62 -16 130 -55 140 -80 7 -20 -30 -59 -87 -92 -83 -47
-80 -40 -80 -187 l0 -131 -47 -17 c-27 -9 -52 -17 -58 -17 -6 0 -9 51 -7 140
2 87 -1 147 -8 160 -6 11 -32 31 -58 44 -82 42 -156 146 -125 177 29 29 222
31 330 3z m288 6 c8 -13 -5 -13 -25 0 -13 8 -13 10 2 10 9 0 20 -4 23 -10z
m-1043 -40 c-3 -31 -11 -38 -23 -20 -8 12 -9 11 -7 -5 2 -11 5 -22 8 -25 7 -7
33 -81 28 -83 -1 -1 -13 -7 -24 -14 -19 -10 -21 -10 -17 8 3 10 10 19 16 19 5
0 3 8 -6 18 -20 22 -22 70 -5 107 14 31 34 27 30 -5z m402 -23 c9 -38 85 -116
137 -143 l49 -24 0 -160 c0 -100 -4 -160 -10 -160 -9 0 -14 123 -10 256 1 50
1 51 -39 69 -83 37 -195 185 -140 185 4 0 9 -10 13 -23z m497 -101 c-19 -19
-53 -45 -77 -58 l-43 -23 -3 -114 c-2 -81 -7 -116 -15 -119 -10 -3 -13 24 -13
110 0 128 1 131 72 171 25 15 57 40 70 56 14 17 27 25 32 20 6 -6 -3 -22 -23
-43z m706 48 c-3 -3 -12 -4 -19 -1 -8 3 -5 6 6 6 11 1 17 -2 13 -5z m63 -10
c0 -2 -9 -4 -20 -4 -11 0 -20 4 -20 9 0 5 9 7 20 4 11 -3 20 -7 20 -9z m-1740
-84 c0 -5 -7 -10 -15 -10 -8 0 -15 5 -15 10 0 6 7 10 15 10 8 0 15 -4 15 -10z
m427 -15 c3 -9 -18 -81 -46 -161 -86 -240 -111 -302 -127 -308 -7 -3 -14 -4
-14 -2 0 2 36 102 81 221 45 119 79 218 78 220 -4 3 -136 -91 -346 -247 -72
-54 -136 -98 -141 -98 -22 0 -34 28 -22 50 21 40 221 260 235 260 18 0 19 -5
3 -22 -71 -74 -219 -250 -215 -255 3 -3 40 21 82 53 43 33 139 103 214 156 75
53 150 108 166 122 35 30 44 31 52 11z m158 -5 c3 -5 1 -10 -4 -10 -6 0 -11 5
-11 10 0 6 2 10 4 10 3 0 8 -4 11 -10z m36 -92 c7 -12 6 -18 -1 -18 -7 0 -9
-8 -5 -21 5 -15 4 -19 -5 -14 -6 4 -9 17 -6 30 3 13 2 26 -3 29 -5 3 -11 16
-14 28 -6 23 -6 23 9 3 9 -11 20 -28 25 -37z m-171 -138 c-16 -60 -20 -46 -6
25 6 33 12 50 14 38 2 -12 -2 -40 -8 -63z m20 -119 c0 -28 -20 -56 -20 -29 0
8 -5 6 -11 -4 -5 -10 -17 -18 -25 -18 -11 0 -7 10 12 40 32 48 44 51 44 11z
m608 -26 c-8 -17 -14 -22 -19 -14 -4 7 -2 18 4 25 20 22 27 16 15 -11z m-28
-29 c0 -11 -13 -36 -19 -36 -4 0 -7 9 -7 20 0 11 6 20 13 20 7 0 13 -2 13 -4z
m30 -20 c0 -3 -4 -8 -10 -11 -5 -3 -10 -1 -10 4 0 6 5 11 10 11 6 0 10 -2 10
-4z m-530 -46 c0 -5 -7 -7 -15 -4 -8 4 -15 8 -15 10 0 2 7 4 15 4 8 0 15 -4
15 -10z m-124 -67 c-10 -10 -19 5 -10 18 6 11 8 11 12 0 2 -7 1 -15 -2 -18z
m84 -20 c0 -15 2 -16 10 -3 13 20 22 7 13 -18 -8 -20 -8 -20 -31 -1 -13 10
-21 23 -17 29 10 16 25 12 25 -7z m166 -10 c17 -17 17 -18 -1 -21 -9 -2 -21 2
-26 10 -20 31 -1 39 27 11z m-110 -20 c-10 -10 -19 5 -10 18 6 11 8 11 12 0 2
-7 1 -15 -2 -18z m-156 -23 c0 -5 -5 -10 -11 -10 -5 0 -7 5 -4 10 3 6 8 10 11
10 2 0 4 -4 4 -10z m-265 -179 c3 -5 1 -12 -5 -16 -5 -3 -10 1 -10 9 0 18 6
21 15 7z m113 -21 c4 -10 -3 -11 -28 -7 -18 4 -40 7 -49 7 -11 1 -8 5 9 14 26
15 61 8 68 -14z m1152 -60 c-8 -5 -26 -9 -40 -9 l-25 1 25 8 c14 4 32 8 40 9
13 1 13 0 0 -9z m-250 -200 c0 -5 -5 -10 -11 -10 -5 0 -7 5 -4 10 3 6 8 10 11
10 2 0 4 -4 4 -10z m195 -190 c-3 -5 -12 -10 -18 -10 -7 0 -6 4 3 10 19 12 23
12 15 0z m-1072 -80 c27 0 73 -29 47 -30 -9 0 -20 4 -25 9 -6 6 -31 12 -58 14
-53 5 -69 14 -47 27 10 6 23 4 37 -5 12 -8 33 -15 46 -15z m147 -21 c0 -11 -4
-17 -10 -14 -5 3 -10 13 -10 21 0 8 5 14 10 14 6 0 10 -9 10 -21z m-180 -26
c10 -13 21 -23 25 -23 4 0 1 7 -6 17 -12 14 -12 15 1 10 8 -4 23 -10 33 -13
18 -7 24 -44 7 -44 -7 0 -7 -6 0 -19 17 -32 12 -58 -12 -64 -25 -7 -58 8 -58
26 -1 21 -59 78 -95 93 -19 8 -47 14 -62 15 -23 1 -20 3 17 14 69 21 128 16
150 -12z m211 12 c1 -8 2 -20 3 -26 0 -7 10 -15 21 -20 11 -4 16 -8 12 -8 -5
-1 -5 -6 -1 -12 4 -8 9 -7 15 2 5 8 -1 21 -18 35 -16 14 -21 24 -14 28 6 4 14
0 17 -8 3 -9 12 -16 19 -16 22 0 28 -39 10 -66 -11 -18 -22 -23 -36 -19 -11 4
-19 2 -19 -5 0 -7 -6 -5 -16 4 -8 9 -22 16 -31 16 -13 0 -14 -2 -2 -17 12 -15
12 -16 -4 -10 -10 4 -21 7 -23 7 -9 0 -4 39 6 45 6 3 10 17 10 31 0 15 6 24
15 24 8 0 15 7 15 15 0 8 5 15 10 15 6 0 11 -7 11 -15z m234 -16 c11 -17 -1
-21 -15 -4 -8 9 -8 15 -2 15 6 0 14 -5 17 -11z m690 -17 c-3 -3 -11 0 -18 7
-9 10 -8 11 6 5 10 -3 15 -9 12 -12z m-673 -52 c12 -11 17 -20 11 -20 -11 0
-43 27 -43 36 0 9 12 3 32 -16z m-315 -58 c-14 -3 -16 -7 -6 -18 7 -9 8 -14 1
-14 -15 0 -23 16 -16 33 3 10 12 13 22 9 15 -6 15 -7 -1 -10z m313 9 c0 -8 37
-24 53 -22 4 1 7 -6 7 -14 0 -8 8 -15 17 -15 9 0 14 -3 10 -6 -20 -20 -127 31
-113 55 8 13 26 15 26 2z m-216 -29 c-22 -5 -31 7 -14 18 9 6 17 5 22 -3 4 -7
1 -13 -8 -15z m-19 -34 c22 2 26 0 15 -7 -8 -5 -17 -8 -21 -5 -4 2 -10 0 -14
-6 -10 -16 -22 -12 -28 10 -3 13 -1 18 6 13 6 -4 25 -6 42 -5z m110 -18 c3 -5
1 -10 -4 -10 -6 0 -11 5 -11 10 0 6 2 10 4 10 3 0 8 -4 11 -10z m-147 -46
c-10 -10 -28 6 -28 24 0 15 1 15 17 -1 9 -9 14 -19 11 -23z m-34 10 c4 -10 1
-14 -6 -12 -15 5 -23 28 -10 28 5 0 13 -7 16 -16z"/>
<path d="M2224 4340 c8 -60 34 -152 46 -160 4 -3 10 -14 13 -25 3 -11 4 27 4
84 l-2 103 -34 26 -33 26 6 -54z"/>
<path d="M222 4302 l-63 -3 -24 -54 -24 -55 245 -242 c201 -199 252 -244 281
-251 28 -6 103 7 332 58 472 105 553 126 547 142 -3 8 -2 12 2 10 4 -3 13 1
19 8 10 11 9 14 -3 17 -16 3 -20 28 -27 163 -2 35 17 54 55 55 30 0 37 -8 44
-48 6 -34 31 -72 47 -72 6 0 32 -19 57 -42 53 -48 70 -50 214 -16 70 17 85 23
68 29 -27 10 -28 24 -4 39 14 10 13 11 -10 7 -16 -2 -28 0 -28 4 0 5 6 9 13 9
6 0 21 8 32 16 20 16 20 16 -2 10 -12 -4 -24 -3 -27 3 -3 5 6 12 21 16 16 4
29 2 33 -6 10 -16 33 -1 26 17 -8 21 21 29 65 17 30 -8 39 -7 43 4 3 8 2 12
-3 9 -5 -3 -25 5 -45 19 -20 14 -43 25 -51 25 -8 0 -17 4 -20 10 -6 10 57 8
104 -4 27 -6 65 10 56 25 -4 5 -11 6 -17 3 -6 -4 -8 1 -4 14 5 15 1 21 -16 26
-22 7 -22 8 -3 15 32 13 -68 22 -235 20 -135 -1 -151 -2 -145 -17 5 -15 4 -15
-12 0 -16 14 -58 17 -308 19 -429 4 -1161 4 -1233 1z m1823 -151 c3 -6 -3 -14
-12 -20 -10 -6 -12 -11 -5 -11 6 0 12 -5 12 -12 0 -8 -5 -7 -15 3 -9 9 -13 23
-9 32 7 19 20 22 29 8z"/>
<path d="M2279 3968 c0 -18 -2 -43 -5 -55 -2 -13 1 -23 6 -23 6 0 10 25 10 55
0 58 -9 78 -11 23z"/>
<path d="M2057 3859 c7 -7 15 -10 18 -7 3 3 -2 9 -12 12 -14 6 -15 5 -6 -5z"/>
<path d="M1937 3809 c7 -7 15 -10 18 -7 3 3 -2 9 -12 12 -14 6 -15 5 -6 -5z"/>
<path d="M3745 3444 c-8 -20 -15 -41 -15 -46 0 -5 -9 -27 -21 -49 -11 -23 -19
-43 -17 -45 6 -6 145 63 153 76 4 6 4 26 1 44 -5 25 -14 35 -39 44 -45 16 -45
17 -62 -24z"/>
<path d="M2675 4483 c-44 -35 -104 -85 -132 -109 l-53 -45 0 -135 c0 -74 1
-134 3 -134 1 0 31 9 67 20 36 11 75 20 87 20 28 0 63 -36 70 -72 3 -16 12
-28 20 -28 8 0 60 -11 116 -25 56 -14 120 -27 143 -29 22 -2 49 -8 60 -13 10
-6 39 -13 64 -17 25 -4 55 -9 68 -13 17 -4 22 -1 22 16 0 13 8 23 24 27 34 8
66 -12 72 -46 6 -27 12 -30 94 -49 111 -27 142 -27 133 -3 -3 9 -11 23 -17 31
-5 7 -11 20 -12 29 -2 8 -6 18 -11 21 -30 22 -36 92 -14 176 5 22 6 44 2 48
-5 5 0 32 11 60 11 29 17 49 13 45 -10 -10 -47 11 -40 22 3 5 1 11 -4 14 -5 3
-196 6 -425 6 -229 1 -416 4 -416 8 0 4 32 59 70 121 39 63 69 115 68 117 -2
1 -39 -27 -83 -63z m395 -301 c0 -13 -12 -22 -22 -16 -10 6 -1 24 13 24 5 0 9
-4 9 -8z m70 -36 c0 -31 -19 -46 -58 -46 l-35 0 26 20 c13 11 28 31 31 46 6
21 9 24 21 14 8 -7 15 -22 15 -34z m-7 -62 c21 -8 9 -55 -20 -77 -13 -10 -21
-23 -18 -28 10 -15 -9 -9 -32 10 -33 27 -30 51 6 51 26 0 47 21 43 43 -2 8 2
9 21 1z m-63 -114 c0 -5 -2 -10 -4 -10 -3 0 -8 5 -11 10 -3 6 -1 10 4 10 6 0
11 -4 11 -10z"/>
<path d="M3682 4289 c-13 -5 -20 -14 -17 -19 4 -6 1 -17 -5 -25 -10 -12 -10
-15 0 -15 9 0 9 -4 -1 -17 -12 -15 -12 -16 6 -9 17 6 16 4 -5 -16 -13 -13 -29
-21 -35 -20 -5 2 -7 0 -2 -4 4 -4 -10 -25 -30 -47 -25 -26 -34 -41 -25 -44 10
-4 10 -8 0 -20 -10 -12 -9 -17 5 -27 12 -10 14 -15 5 -24 -7 -7 -19 -12 -27
-12 -11 0 -9 -6 7 -23 12 -13 22 -30 22 -39 0 -15 30 -24 107 -34 12 -1 27 -5
34 -10 8 -4 9 -3 5 4 -4 7 -1 12 9 12 9 0 14 4 10 9 -5 9 12 26 27 26 4 0 16
8 27 17 20 17 20 16 23 -90 l3 -107 147 -33 c136 -32 150 -33 188 -21 32 11
92 65 279 253 l239 238 -25 55 -25 54 -462 -2 c-253 -1 -472 -6 -484 -10z
m216 -142 c-4 -29 -24 -32 -31 -6 -8 28 -1 40 19 32 8 -3 14 -15 12 -26z m-98
-114 c0 -13 1 -26 1 -30 2 -9 -68 -23 -75 -16 -2 3 7 21 20 40 13 20 24 43 24
52 1 27 30 -18 30 -46z m-75 38 c3 -5 1 -12 -5 -16 -5 -3 -10 1 -10 9 0 18 6
21 15 7z"/>
<path d="M3495 4179 c-4 -6 -5 -12 -2 -15 2 -3 7 2 10 11 7 17 1 20 -8 4z"/>
<path d="M2689 3954 c-5 -15 -8 -28 -6 -30 11 -11 196 -81 201 -76 13 13 2 20
-88 52 -126 46 -119 65 12 35 139 -32 172 -37 172 -26 0 5 -8 12 -17 15 -28 8
-245 56 -255 56 -4 0 -13 -12 -19 -26z"/>
<path d="M2635 3921 c-8 -25 14 -71 35 -71 9 0 24 6 35 13 17 13 16 15 -13 25
-22 7 -32 17 -32 31 0 26 -17 27 -25 2z"/>
<path d="M2762 3848 c6 -17 36 -34 45 -24 4 4 -1 14 -11 22 -24 17 -39 18 -34
2z"/>
<path d="M3125 3810 c21 -24 37 -26 29 -5 -4 8 -10 12 -15 9 -5 -3 -9 0 -9 5
0 6 -5 11 -12 11 -6 0 -3 -9 7 -20z"/>
<path d="M2880 3770 c0 -5 5 -10 10 -10 6 0 10 5 10 10 0 6 -4 10 -10 10 -5 0
-10 -4 -10 -10z"/>
<path d="M3317 3579 c4 -13 9 -17 15 -11 11 11 3 32 -12 32 -4 0 -6 -9 -3 -21z"/>
<path d="M2625 3511 c-9 -8 -5 -21 6 -21 7 0 17 -7 24 -17 18 -25 36 -8 22 21
-10 21 -39 31 -52 17z"/>
<path d="M2823 3423 c9 -9 19 -14 23 -11 10 10 -6 28 -24 28 -15 0 -15 -1 1
-17z"/>
<path d="M3050 3389 c0 -5 9 -9 20 -9 11 0 20 2 20 4 0 2 -9 6 -20 9 -11 3
-20 1 -20 -4z"/>
<path d="M1485 2661 c-11 -18 14 -50 54 -71 22 -11 41 -23 43 -27 3 -5 3 -2 1
5 -1 7 6 23 17 35 28 29 21 40 -29 49 -24 4 -51 10 -61 13 -10 3 -21 1 -25 -4z"/>
<path d="M2689 2540 c-19 -10 -112 -42 -205 -70 -275 -83 -394 -151 -445 -257
-19 -39 -21 -57 -17 -143 4 -83 9 -105 32 -144 52 -90 129 -119 311 -119 203
-1 290 35 341 140 l29 58 3 278 c2 152 0 277 -5 277 -4 -1 -24 -9 -44 -20z
m-9 -292 c0 -146 -4 -259 -10 -268 -6 -10 -10 76 -10 253 0 171 4 267 10 267
6 0 10 -91 10 -252z m-182 -105 c-2 -234 -6 -307 -15 -311 -10 -3 -13 62 -13
301 0 167 3 307 7 310 3 4 10 7 15 7 4 0 7 -138 6 -307z m-48 -12 l0 -298 -47
-6 c-27 -3 -51 -3 -55 0 -5 2 -8 132 -8 287 l0 283 38 16 c77 32 72 53 72
-282z m-140 -21 c0 -180 -4 -280 -10 -280 -6 0 -10 98 -10 273 0 241 3 287 17
287 2 0 3 -126 3 -280z m-190 -25 c0 -123 -4 -195 -10 -195 -6 0 -10 69 -10
188 0 166 3 202 17 202 2 0 3 -88 3 -195z m-40 -7 c-1 -148 -1 -152 -17 -123
-25 46 -30 192 -8 239 9 20 19 36 21 36 2 0 4 -69 4 -152z"/>
<path d="M3158 2504 c-5 -4 -8 -143 -8 -308 0 -229 -4 -312 -14 -347 -53 -174
-193 -303 -396 -363 -150 -45 -410 -58 -598 -30 -173 25 -301 84 -388 176 -89
95 -125 175 -149 338 -20 128 -19 217 5 329 25 121 13 152 -25 69 -31 -68 -55
-187 -55 -274 0 -86 25 -246 49 -316 68 -196 239 -322 494 -361 l82 -13 52
-99 c50 -96 70 -117 104 -108 23 6 29 33 29 126 l0 77 55 0 55 0 0 -87 c0 -92
5 -110 30 -113 38 -6 49 4 88 83 82 160 73 151 160 177 115 35 160 57 240 117
83 62 151 148 182 229 19 53 20 72 18 381 -2 178 -6 321 -10 317z m-590 -1171
c-27 -54 -56 -104 -63 -112 -22 -23 -36 20 -33 104 4 92 22 96 25 5 1 -36 2
-69 2 -74 1 -6 19 28 42 74 37 77 53 99 70 100 4 0 -16 -44 -43 -97z m-319 -9
l36 -69 3 73 c4 103 22 90 22 -17 0 -130 -15 -131 -79 -4 -45 90 -47 97 -29
91 6 -2 28 -35 47 -74z"/>
<path d="M1601 2484 c0 -11 3 -14 6 -6 3 7 2 16 -1 19 -3 4 -6 -2 -5 -13z"/>
<path d="M1648 2491 c8 -4 13 -11 13 -15 -3 -25 -1 -30 11 -18 6 6 16 8 22 3
6 -4 24 -11 39 -15 25 -6 27 -5 18 13 -11 20 -60 41 -95 41 -15 0 -17 -3 -8
-9z"/>
<path d="M2057 2449 c7 -7 15 -10 18 -7 3 3 -2 9 -12 12 -14 6 -15 5 -6 -5z"/>
<path d="M1710 2430 c0 -5 5 -10 10 -10 6 0 10 5 10 10 0 6 -4 10 -10 10 -5 0
-10 -4 -10 -10z"/>
<path d="M1745 2010 c-3 -5 1 -10 9 -10 9 0 16 5 16 10 0 6 -4 10 -9 10 -6 0
-13 -4 -16 -10z"/>
</g>
</svg>
